<?xml version="1.0" encoding="utf-8"?>
<!-- Generator: Adobe Illustrator 17.0.0, SVG Export Plug-In . SVG Version: 6.00 Build 0)  -->
<!DOCTYPE svg PUBLIC "-//W3C//DTD SVG 1.1//EN" "http://www.w3.org/Graphics/SVG/1.1/DTD/svg11.dtd">
<svg version="1.1" id="Layer_1" xmlns="http://www.w3.org/2000/svg" xmlns:xlink="http://www.w3.org/1999/xlink" x="0px" y="0px"
	 width="20px" height="31px" viewBox="0 0 20 31" style="enable-background:new 0 0 20 31;" xml:space="preserve">
<style type="text/css">
	.st0{fill:#FFFFFF;}
</style>
<g transform="translate(0,-952.36218)">
	<path class="st0" d="M10.001,952.862c-0.366,0.009-0.731,0.152-0.968,0.363l-8.226,7.258c-0.616,0.6-0.628,1.486-0.121,2.056
		c0.506,0.57,1.486,0.628,2.056,0.121l5.806-5.126v23.876c0,0.802,0.65,1.452,1.452,1.452s1.452-0.65,1.452-1.452v-23.876
		l5.806,5.126c0.57,0.507,1.534,0.435,2.056-0.121c0.544-0.58,0.449-1.549-0.121-2.056l-8.226-7.258
		C10.677,952.967,10.388,952.865,10.001,952.862z"/>
</g>
</svg>
