<?xml version="1.0" encoding="utf-8"?>
<!-- Generator: Adobe Illustrator 17.0.0, SVG Export Plug-In . SVG Version: 6.00 Build 0)  -->
<!DOCTYPE svg PUBLIC "-//W3C//DTD SVG 1.1//EN" "http://www.w3.org/Graphics/SVG/1.1/DTD/svg11.dtd">
<svg version="1.1" id="Layer_1" xmlns="http://www.w3.org/2000/svg" xmlns:xlink="http://www.w3.org/1999/xlink" x="0px" y="0px"
	 width="69px" height="69px" viewBox="0 0 69 69" style="enable-background:new 0 0 69 69;" xml:space="preserve">
<style type="text/css">
	.st0{fill:#F36523;}
</style>
<path class="st0" d="M50,34.5h-1.208v-3.625c0-0.668-0.54-1.208-1.208-1.208h-0.668l3.092-8.186
	c2.396-0.382,4.192-2.539,4.562-5.638c0.472-3.962-1.513-8.829-6.99-10.154c-0.481-0.119-0.984,0.073-1.272,0.478
	c-0.286,0.406-0.293,0.945-0.021,1.359c1.277,1.946,0.507,3.099-0.854,4.817c-0.522,0.657-1.012,1.277-1.31,1.981
	c-0.566,1.344-0.597,2.757-0.085,3.978c0.241,0.574,0.605,1.091,1.056,1.541l-5.468,9.823h-0.499V6.708
	c0-0.668-0.54-1.208-1.208-1.208H28.25c-0.668,0-1.208,0.54-1.208,1.208v22.958h-0.498l-5.696-10.253
	c-0.011-0.02-0.035-0.029-0.047-0.049c-0.018-0.029-0.022-0.062-0.043-0.089c-0.09-0.12-0.202-0.21-0.32-0.286
	c-0.01-0.006-0.014-0.019-0.024-0.025l-0.012-0.007c-0.002-0.001-0.004-0.003-0.006-0.004l-6.024-3.614
	c-0.407-0.245-0.915-0.231-1.302,0.038c-0.389,0.264-0.59,0.732-0.512,1.197l1.208,7.25c0.003,0.018,0.013,0.033,0.017,0.051
	c0.009,0.041,0.025,0.078,0.038,0.117c0.019,0.058,0.029,0.119,0.056,0.174l2.751,5.501h-0.461c-0.668,0-1.208,0.54-1.208,1.208
	v26.583c0,3.332,2.71,6.042,6.042,6.042h21.75c3.332,0,6.042-2.709,6.042-6.042v-6.042H50c4.663,0,8.458-3.795,8.458-8.458
	S54.663,34.5,50,34.5z M46.349,15.263c0.168-0.401,0.559-0.896,0.975-1.418c0.92-1.16,2.169-2.736,2.03-4.788
	c2.268,1.545,3.087,4.223,2.816,6.5c-0.198,1.654-1.081,3.587-2.919,3.587c-0.434,0-0.906-0.107-1.407-0.319
	c-0.769-0.323-1.315-0.826-1.576-1.456C46.002,16.742,46.033,16.014,46.349,15.263z M47.141,21.128
	c0.124,0.047,0.247,0.079,0.371,0.118l-3.18,8.42h-1.943L47.141,21.128z M29.458,7.917h7.25v2.417h-3.625
	c-0.668,0-1.208,0.54-1.208,1.208s0.54,1.208,1.208,1.208h3.625v2.417H35.5c-0.668,0-1.208,0.54-1.208,1.208
	c0,0.668,0.54,1.208,1.208,1.208h1.208V20h-3.625c-0.668,0-1.208,0.54-1.208,1.208s0.54,1.208,1.208,1.208h3.625v2.417H35.5
	c-0.668,0-1.208,0.54-1.208,1.208s0.54,1.208,1.208,1.208h1.208v2.417h-7.25V7.917z M17.629,20.112l-1.806,1.354l-0.451-2.709
	L17.629,20.112z M16.49,23.986l2.918-2.188l4.372,7.869h-4.45L16.49,23.986z M46.375,57.458c0,1.999-1.626,3.625-3.625,3.625H21
	c-1.999,0-3.625-1.626-3.625-3.625V32.083h1.208h7.25h0.048h2.368h9.667h8.458L46.375,57.458L46.375,57.458z M50,49h-1.208V36.917
	H50c3.332,0,6.042,2.709,6.042,6.042C56.042,46.291,53.332,49,50,49z"/>
</svg>
