<?xml version="1.0" encoding="utf-8"?>
<!-- Generator: Adobe Illustrator 17.0.0, SVG Export Plug-In . SVG Version: 6.00 Build 0)  -->
<!DOCTYPE svg PUBLIC "-//W3C//DTD SVG 1.1//EN" "http://www.w3.org/Graphics/SVG/1.1/DTD/svg11.dtd">
<svg version="1.1" id="Layer_1" xmlns="http://www.w3.org/2000/svg" xmlns:xlink="http://www.w3.org/1999/xlink" x="0px" y="0px"
	 width="69px" height="69px" viewBox="0 0 69 69" style="enable-background:new 0 0 69 69;" xml:space="preserve">
<style type="text/css">
	.st0{fill:#F36523;}
</style>
<path class="st0" d="M49.567,42.767l-7.691-7.693l7.691-7.691c3.863,1.302,8.309,0.284,11.225-2.63
	c3.181-3.178,4.074-7.709,2.331-11.822c-0.159-0.376-0.496-0.647-0.897-0.722c-0.404-0.076-0.814,0.059-1.097,0.353l-4.292,4.461
	h-3.423v-3.798l4.299-4.297c0.285-0.286,0.411-0.694,0.335-1.092c-0.078-0.396-0.349-0.729-0.719-0.887
	C53.287,5.24,48.432,6.173,45.32,9.284c-2.965,2.968-3.958,7.294-2.633,11.225l-7.688,7.689l-7.691-7.689
	c1.327-3.93,0.336-8.258-2.63-11.225c-3.179-3.182-7.712-4.077-11.822-2.335c-0.376,0.159-0.647,0.497-0.722,0.899
	c-0.074,0.401,0.058,0.813,0.353,1.097l4.461,4.295v3.784h-3.784l-4.295-4.461c-0.284-0.297-0.702-0.43-1.097-0.353
	c-0.402,0.075-0.74,0.345-0.899,0.722c-1.729,4.085-0.814,8.76,2.335,11.912c2.949,2.952,7.279,3.927,11.226,2.588l7.678,7.655
	l-7.68,7.681c-3.864-1.306-8.313-0.285-11.225,2.63c-3.163,3.165-4.08,7.877-2.335,12.001c0.158,0.373,0.49,0.643,0.887,0.722
	c0.394,0.074,0.806-0.05,1.092-0.335l4.297-4.297h3.798v3.423l-4.461,4.295c-0.294,0.285-0.427,0.696-0.353,1.097
	c0.075,0.404,0.347,0.741,0.723,0.9c1.357,0.572,2.786,0.862,4.247,0.862c2.877,0,5.599-1.135,7.662-3.198
	c2.937-2.93,3.893-7.26,2.543-11.225l7.692-7.693l7.69,7.693c-1.329,3.934-0.337,8.262,2.63,11.225
	c2.096,2.099,4.876,3.207,7.716,3.207c1.441,0,2.896-0.285,4.288-0.871c0.373-0.159,0.643-0.491,0.722-0.888
	c0.076-0.396-0.05-0.807-0.335-1.092l-4.299-4.297v-3.438h3.438l4.297,4.297c0.287,0.287,0.696,0.404,1.092,0.335
	c0.396-0.078,0.729-0.349,0.888-0.722c1.743-4.124,0.826-8.836-2.336-12.001C57.826,42.428,53.499,41.443,49.567,42.767z
	 M21.595,25.155c-0.351-0.349-0.876-0.457-1.332-0.259c-3.233,1.364-6.895,0.669-9.336-1.772c-1.974-1.975-2.818-4.722-2.365-7.375
	l3.207,3.332c0.229,0.239,0.546,0.373,0.876,0.373h5.517c0.672,0,1.216-0.544,1.216-1.216v-5.517c0-0.33-0.134-0.647-0.373-0.876
	L15.67,8.634c2.625-0.465,5.298,0.376,7.288,2.368c2.461,2.461,3.173,6.125,1.815,9.336c-0.193,0.456-0.09,0.983,0.26,1.333
	l8.247,8.245l-3.449,3.45L21.595,25.155z M24.774,49.814c1.377,3.25,0.7,6.913-1.725,9.335c-1.953,1.949-4.723,2.82-7.375,2.365
	l3.332-3.207c0.239-0.23,0.373-0.546,0.373-0.876v-5.156c0-0.672-0.544-1.216-1.216-1.216h-5.517c-0.323,0-0.631,0.128-0.859,0.356
	L8.568,54.63c-0.489-2.704,0.355-5.508,2.359-7.514c2.422-2.419,6.201-3.143,9.335-1.816c0.455,0.197,0.984,0.093,1.334-0.259
	l23.365-23.37c0.349-0.35,0.453-0.876,0.261-1.332c-1.356-3.211-0.643-6.875,1.816-9.337c1.966-1.967,4.831-2.833,7.516-2.357
	l-3.217,3.217c-0.228,0.228-0.356,0.537-0.356,0.859v5.517c0,0.672,0.544,1.216,1.216,1.216h5.156c0.33,0,0.646-0.134,0.876-0.373
	l3.21-3.336c0.461,2.629-0.375,5.299-2.367,7.288c-2.419,2.42-6.196,3.146-9.335,1.815c-0.463-0.191-0.985-0.091-1.334,0.26
	l-23.37,23.37C24.683,48.828,24.58,49.358,24.774,49.814z M61.43,54.63l-3.217-3.217c-0.228-0.228-0.537-0.356-0.859-0.356h-5.156
	c-0.672,0-1.216,0.544-1.216,1.216v5.156c0,0.323,0.128,0.631,0.356,0.859l3.219,3.217c-2.716,0.496-5.515-0.356-7.516-2.357
	c-2.462-2.457-3.174-6.123-1.814-9.337c0.192-0.456,0.088-0.983-0.261-1.332l-8.246-8.248l3.437-3.438l8.246,8.248
	c0.349,0.349,0.871,0.456,1.334,0.259c3.205-1.363,6.873-0.648,9.335,1.816C61.076,49.123,61.922,51.926,61.43,54.63z"/>
</svg>
