<?xml version="1.0" encoding="utf-8"?>
<!-- Generator: Adobe Illustrator 17.0.0, SVG Export Plug-In . SVG Version: 6.00 Build 0)  -->
<!DOCTYPE svg PUBLIC "-//W3C//DTD SVG 1.1//EN" "http://www.w3.org/Graphics/SVG/1.1/DTD/svg11.dtd">
<svg version="1.1" id="Layer_1" xmlns="http://www.w3.org/2000/svg" xmlns:xlink="http://www.w3.org/1999/xlink" x="0px" y="0px"
	 width="69px" height="69px" viewBox="0 0 69 69" style="enable-background:new 0 0 69 69;" xml:space="preserve">
<style type="text/css">
	.st0{fill:#F36523;}
</style>
<path class="st0" d="M65.258,11.26c-0.237-0.32-0.61-0.509-1.008-0.509h-5v-5c0-0.398-0.188-0.771-0.51-1.007
	c-0.32-0.236-0.732-0.308-1.113-0.186c-0.483,0.151-11.87,3.779-13.484,10.331c-0.58,2.363,0.137,4.739,2.126,7.075l-3.292,3.292
	C38.994,21.69,33.754,19.501,28,19.501c-12.406,0-22.5,10.094-22.5,22.5c0,5.754,2.19,10.994,5.756,14.977l-5.39,5.39
	c-0.488,0.488-0.488,1.279,0,1.768c0.244,0.244,0.564,0.366,0.884,0.366c0.32,0,0.64-0.122,0.884-0.366l5.39-5.39
	c3.983,3.566,9.223,5.756,14.977,5.756c5.755,0,10.994-2.189,14.977-5.756l5.389,5.389c0.244,0.244,0.564,0.366,0.884,0.366
	s0.64-0.122,0.884-0.366c0.488-0.488,0.488-1.279,0-1.768l-5.389-5.389c3.566-3.983,5.756-9.222,5.756-14.977
	c0-5.754-2.19-10.994-5.756-14.977l3.316-3.316c1.8,1.525,3.634,2.343,5.469,2.343c7.551,0,11.738-13.119,11.914-13.678
	C65.561,11.994,65.493,11.581,65.258,11.26z M56.75,11.483L53,15.233V9.26c1.325-0.712,2.649-1.312,3.75-1.741V11.483z
	 M46.569,15.488c0.435-1.77,2.021-3.367,3.931-4.706v6.951l-2.434,2.434C46.727,18.532,46.201,16.99,46.569,15.488z M48,42.001
	c0,5.475-2.215,10.44-5.791,14.055c-0.029,0.024-0.065,0.034-0.093,0.061s-0.037,0.063-0.061,0.093
	c-3.615,3.576-8.58,5.791-14.055,5.791s-10.44-2.215-14.055-5.791c-0.024-0.029-0.034-0.065-0.061-0.093s-0.063-0.037-0.093-0.061
	C10.215,52.44,8,47.475,8,42.001c0-11.028,8.972-20,20-20c5.065,0,9.682,1.908,13.21,5.023l-3.534,3.534
	c-2.614-2.214-5.989-3.557-9.676-3.557c-8.271,0-15,6.729-15,15s6.729,15,15,15s15-6.729,15-15c0-3.687-1.342-7.061-3.557-9.676
	l3.534-3.534C46.092,32.319,48,36.936,48,42.001z M33,42.001c0,2.756-2.242,5-5,5s-5-2.244-5-5s2.242-5,5-5
	c0.925,0,1.78,0.269,2.524,0.708l-1.915,1.915c-0.2-0.052-0.393-0.123-0.609-0.123c-1.378,0-2.5,1.121-2.5,2.5s1.122,2.5,2.5,2.5
	s2.5-1.121,2.5-2.5c0-0.216-0.072-0.409-0.123-0.609l1.915-1.915C32.731,40.221,33,41.076,33,42.001z M32.333,35.9
	c-1.226-0.874-2.715-1.4-4.333-1.4c-4.136,0-7.5,3.364-7.5,7.5s3.364,7.5,7.5,7.5s7.5-3.364,7.5-7.5c0-1.617-0.526-3.106-1.4-4.333
	l3.534-3.534c1.763,2.155,2.866,4.871,2.866,7.866c0,6.892-5.608,12.5-12.5,12.5s-12.5-5.608-12.5-12.5s5.608-12.5,12.5-12.5
	c2.995,0,5.711,1.103,7.866,2.866L32.333,35.9z M53.53,23.551c-1.181,0-2.425-0.556-3.708-1.605l8.695-8.695h3.965
	C60.976,17.139,57.629,23.551,53.53,23.551z"/>
</svg>
