<?xml version="1.0" encoding="utf-8"?>
<!-- Generator: Adobe Illustrator 17.0.0, SVG Export Plug-In . SVG Version: 6.00 Build 0)  -->
<!DOCTYPE svg PUBLIC "-//W3C//DTD SVG 1.1//EN" "http://www.w3.org/Graphics/SVG/1.1/DTD/svg11.dtd">
<svg version="1.1" id="Layer_1" xmlns="http://www.w3.org/2000/svg" xmlns:xlink="http://www.w3.org/1999/xlink" x="0px" y="0px"
	 width="69px" height="69px" viewBox="0 0 69 69" style="enable-background:new 0 0 69 69;" xml:space="preserve">
<style type="text/css">
	.st0{fill:#F36523;}
</style>
<path class="st0" d="M58.682,11.591h-6.364V7.773c0-0.703-0.569-1.273-1.273-1.273H12.864c-0.703,0-1.273,0.569-1.273,1.273v6.364
	h-1.273c-0.703,0-1.273,0.569-1.273,1.273s0.569,1.273,1.273,1.273h1.273v5.091h-1.273c-0.703,0-1.273,0.569-1.273,1.273
	c0,0.703,0.569,1.273,1.273,1.273h1.273v5.091h-1.273c-0.703,0-1.273,0.569-1.273,1.273c0,0.703,0.569,1.273,1.273,1.273h1.273
	v5.091h-1.273c-0.703,0-1.273,0.569-1.273,1.273s0.569,1.273,1.273,1.273h1.273v5.091h-1.273c-0.703,0-1.273,0.569-1.273,1.273
	s0.569,1.273,1.273,1.273h1.273v5.091h-1.273c-0.703,0-1.273,0.569-1.273,1.273s0.569,1.273,1.273,1.273h1.273v6.364
	c0,0.703,0.569,1.273,1.273,1.273h38.182c0.703,0,1.273-0.569,1.273-1.273v-6.364h6.364c0.703,0,1.273-0.569,1.273-1.273V43.409
	V33.227V23.045V12.864C59.955,12.16,59.385,11.591,58.682,11.591z M49.773,12.864v10.182v10.182V43.41v10.182v6.364H14.136v-5.091
	h1.273c0.703,0,1.273-0.569,1.273-1.273s-0.569-1.273-1.273-1.273h-1.273v-5.091h1.273c0.703,0,1.273-0.569,1.273-1.273
	s-0.569-1.273-1.273-1.273h-1.273v-5.091h1.273c0.703,0,1.273-0.569,1.273-1.273s-0.569-1.273-1.273-1.273h-1.273v-5.091h1.273
	c0.703,0,1.273-0.569,1.273-1.273c0-0.703-0.569-1.273-1.273-1.273h-1.273v-5.091h1.273c0.703,0,1.273-0.569,1.273-1.273
	c0-0.703-0.569-1.273-1.273-1.273h-1.273V16.68h1.273c0.703,0,1.273-0.569,1.273-1.273s-0.569-1.273-1.273-1.273h-1.273V9.045
	h35.636L49.773,12.864L49.773,12.864z M57.409,52.318h-5.091v-7.636h5.091V52.318z M57.409,42.136h-5.091V34.5h5.091V42.136z
	 M57.409,31.955h-5.091v-7.636h5.091V31.955z M57.409,21.773h-5.091v-7.636h5.091V21.773z M25.591,29.409h15.273
	c0.703,0,1.273-0.569,1.273-1.273V17.955c0-0.703-0.569-1.273-1.273-1.273H25.591c-0.703,0-1.273,0.569-1.273,1.273v10.182
	C24.318,28.84,24.887,29.409,25.591,29.409z M26.864,19.227h12.727v7.636H26.864V19.227z"/>
</svg>
