<?xml version="1.0" encoding="utf-8"?>
<!-- Generator: Adobe Illustrator 17.0.0, SVG Export Plug-In . SVG Version: 6.00 Build 0)  -->
<!DOCTYPE svg PUBLIC "-//W3C//DTD SVG 1.1//EN" "http://www.w3.org/Graphics/SVG/1.1/DTD/svg11.dtd">
<svg version="1.1" id="Layer_1" xmlns="http://www.w3.org/2000/svg" xmlns:xlink="http://www.w3.org/1999/xlink" x="0px" y="0px"
	 width="200px" height="200px" viewBox="0 0 200 200" style="enable-background:new 0 0 200 200;" xml:space="preserve">
<style type="text/css">
	.st0{fill:#FFFFFF;}
</style>
<path class="st0" d="M72.948,53.596c-2.451,2.868-4.916,5.722-5.49,9.573l0.546,0.655c1.646-1.98,4.09-3.632,6.357-4.773
	c0,4.063,2.622,8.043,6.111,9.996l0.594,0.048c-0.744-4.288-0.246-9.525,1.434-13.39c2.67-2.246,6.179-3.134,8.439-5.496
	c-5.647-1.325-11.034-0.212-15.861,1.639l-2.13,1.741V53.596z M96.163,66.023c-3.646,0.273-7.046,0.922-10.474,1.816
	c1.516,1.4,3.428,1.871,4.861,3.175c-4.493,1.7-9.197,2.765-13.116,6.234l0.819,0.485c7.258-1.509,15.848-1.386,23.413,0.232
	l0.444-0.314l-4.384-7.982l6.739-1.468c-3.585-3.353-7.681-6.644-12.379-8.071c0.703,1.946,2.683,3.899,4.076,5.879l0,0l0,0
	L96.163,66.023z M122.525,74.032c3.585,0.662,7.538,0.744,10.952,0.102c-5.633-2.881-12.83-2.315-17.322-7.354
	c0.833,2.649,2.67,6.91,6.364,7.251L122.525,74.032z M68.953,94.325c1.4,4.506-3.325,9.989,0.464,14.113
	c3.216,3.755,7.156,6.869,10.952,9.621l-0.328-1.407c-3.373-3.947-6.48-8.289-8.03-12.973c3.947,1.386,8.125,3.298,12.652,3.933
	c-5.094-7.593-14.407-14.858-10.891-25.257c0.184-1.721,2.458-3.038,1.891-4.629c-5.333,4.076-7.559,10.071-6.705,16.599l0,0
	L68.953,94.325z M184.728,81.235c-7.203-9.982-33.252-11.553-45.03-24.697c2.007-6.534-2.205-11.894-6.493-15.977
	c-6.452-4.745-15.356-2.56-22.218-0.594c-7.825-1.639-15.056-4.445-22.669-6.664C71.377,31.535,54.69,43.914,54.69,43.914
	c-12.017,7.948-30.862,24.41-39.868,34.01c2.219,0.3,4.575-1.427,7.074-1.762l17.316-4.752c-7.19,6.186-22.327,17.063-26.711,25.653
	c5.401-1.946,16.749-8.487,22.396-9.02c-4.923,4.52-15.206,13.103-18.429,18.565c0.389,0.191,0.116,0.655,0.184,1.004
	c4.24-2.438,14.53-8.794,19.207-9.218c-4.807,5.196-13.642,15.165-15.588,21.856c4.179-2.847,14.673-8.617,19.262-10.378
	c-1.045,2.636-3.366,4.602-4.868,7.244c-2.076,3.653-7.012,7.804-7.19,12.147c3.66-3.544,8.194-6.65,12.755-9.156
	c-2.035,4.39-5.77,8.016-6.794,13.239c2.984-3.011,8.658-4.575,12.509-5.954l-0.464,0.457c-0.335,0.28-4.663,3.475-7.62,7.04
	c2.615-0.171,0.69-0.498,3.988,0.259l-5.456,2.212c3.994,5.237,8.323,9.75,12.959,13.547c-0.205-1.147-0.178-2.431-0.86-2.649
	l13.465-7.599c-4.582,0.772-17.09,4.636-17.848,4.001c2.738-3.079,16.961-7.149,19.651-12.522c0,0,0.437-0.191-0.956,0.335
	l-10.727,0.601c-2.096-7.586,6.821-11.58,2.253-17.616c-6.814-9.013-12.379-18.306-11.191-29.722
	c0.635,1.352,1.263,2.868,2.397,3.94c0.471-2.526,0.58-5.374,1.277-7.634c0.983,3.434,2.014,7.354,5.572,9.484l0.178-0.232
	c-2.922-10.788-1.079-23.713,9.504-30.337c-2.82,0.956-6.992,0.69-11.13,2.479c0.71-0.983,1.953-6.111,4.807-8.678
	c2.342-1.57,3.503-3.448,5.906-4.766c4.759-3.783,9.586-6.93,17.869-8.241c7.736-1.229,14.605,2.342,21.863,3.51
	c-0.321,1.099-1.7,1.625-2.185,2.533c-0.669,1.25-2.349,2.52-1.673,3.871l5.619-2.151c7.886-1.987,15.383-5.988,23.987-5.087
	l4.302,5.469c-9.231-7.347-18.838,2.048-27.981,4.049c-3.496,0.635-6.944,1.878-10.276,2.608c3.79,2.834,8.296,3.475,13.212,2.943
	c0.533,3.585,4.909,9.279,8.139,10.092c-0.464-3.312-4.165-7.852-1.789-11.928c3.052-1.707,7.415-5.476,10.877-2.656
	c-2.205,0.205-4.063,1.721-5.981,2.724c-1.42,1.031-1.775,4.206-1.482,4.93c1.42,4.308,9.245,8.378,22.519,8.241
	c-1.14-1.973-7.722-7.736-7.333-9.948c13.383,13.274,38.032,16.394,43.74,22.191c0.492,1.939-5.312,6.213-4.186,7.914
	c-0.655,2.048,2.499,5.667,5.722,9.58c-2.533-15.793,5.838-5.367,1.516,5.94l-6.091-1.345c-19.74-1.386-27.435-8.139-42.996-18.313
	c-5.783-3.837-12.29-9.334-16.25-12.522l-8.678-3.312c11.512,13.984,14.503,12.7,8.781,23.065l-3.011-5.285l-1.174-9.689
	c-3.38,11.594-5.237,23.816,10.133,30.924l8.74,1.236c-4.069-3.346-7.695-6.582-6.794-10.515
	c4.773,9.218,26.902,13.772,36.263,16.353c1.557,0.594,3.182,1.516,4.226,2.663c-2.458,2.219-3.892,1.885-7.169,3.059
	c-7.135-2.438-16.892-4.39-20.115-9.033c1.789,2.574-28.595,6.152-22.73,6.65c-8.617-0.403-17.241-5.974-23.29-12.857l-1.57-0.539
	c0.164,6.76,6.534,11.491,9.88,17.247l6.637,2.943c-3.168,2.042-7.156,3.933-9.149,7.524c-0.696,1.775-2.096,4.008-1.202,5.879
	c2.977-3.168,6.869-4.725,10.713-5.695l-2.888,4.39c0.621,4.889-3.414,13.506-6.145,18.586c-3.236,7.927-23.823,0.478-42.299-5.025
	c14.878,11.075,32.856,15.295,53.524,13.512l-2.226-4.834c4.855-9.566,2.267-24.895,14.946-31.504
	c8.583-4.568,9.552-7.06,19.453-5.203c5.346,1.011,17.049,5.046,22.662,3.776c5.08-2.943,7.62-4.281,12.004-7.681
	c5.51,0.976,7.285,0.389,9.286-2.615c1.024-2.806,3.489-10.235,5.742-15.083l0.164-2.622c-2.205-6.589-1.666-17.828-2.772-19.446
	V81.235z M121.897,62.404c-0.109,0.464-0.116,0.929-0.041,1.359c-1.181-0.942-1.946-2.185-1.966-3.673
	c1.209-0.102,2.342,0.041,3.407,0.369c-0.669,0.403-1.188,1.099-1.4,1.953V62.404z M125.878,65.524
	c0.546-0.41,0.963-1.024,1.154-1.782c0.089-0.362,0.116-0.717,0.082-1.072c0.963,0.833,1.809,1.809,2.574,2.854
	c-1.229,0.232-2.554,0.218-3.81-0.007V65.524z M138.189,103.426c0.15-1.086-0.034-2.362,0.471-3.23
	c0.772,0.321,2.192,0.328,2.506,0.983c-1.086,0.464-1.864,1.687-2.97,2.246H138.189z M145.105,106.915l0.178-2.977
	c0.908-0.205,1.57,0.369,2.069,0.778l-2.253,2.199H145.105z M150.438,109.305c0.205-0.444-0.123-3.503,0.478-3.469l1.796,1.058
	c-0.539-0.041-1.755,2.438-2.281,2.41L150.438,109.305z M155.361,111.838l0.567-1.413c-0.096-2.752-0.014-2.178,2.048-1.775
	c-0.737,0.683-1.372,3.086-2.622,3.189L155.361,111.838z M161.834,113.689l0.15-4.295l2.076,0.478L161.834,113.689z
	 M167.528,113.026c-0.157-3.332-0.014-2.956,2.56-1.96L167.528,113.026z M173.632,115.109c0.075-1.174,0.417-2.513,0.048-3.619
	c0.703,0.055,1.516-0.171,2.11,0.328c-0.164,1.338-1.543,2.158-2.158,3.298V115.109z M150.438,109.305
	c0.539,0.041,1.755-2.438,2.281-2.41l-1.796-1.058c-0.621-0.048-0.28,3.032-0.478,3.469L150.438,109.305z M96.982,154.151
	c0.819,1.529,0.847,3.4,1.666,4.93c1.925-4.158,1.714-9.149-0.792-12.884c-4.349-1.919-8.549-3.912-12.304-6.944
	c1.55,5.305,6.65,11.157,11.423,14.899l0,0H96.982z M95.418,164.768l4.22-3.441c-4.104-2.67-11.048-7.442-14.817-10.986
	c2.956,6.145,3.052,12.932,10.59,14.427H95.418z"/>
</svg>
