<?xml version="1.0" encoding="utf-8"?>
<!-- Generator: Adobe Illustrator 17.0.0, SVG Export Plug-In . SVG Version: 6.00 Build 0)  -->
<!DOCTYPE svg PUBLIC "-//W3C//DTD SVG 1.1//EN" "http://www.w3.org/Graphics/SVG/1.1/DTD/svg11.dtd">
<svg version="1.1" id="Layer_1" xmlns="http://www.w3.org/2000/svg" xmlns:xlink="http://www.w3.org/1999/xlink" x="0px" y="0px"
	 width="200px" height="200px" viewBox="0 0 200 200" style="enable-background:new 0 0 200 200;" xml:space="preserve">
<style type="text/css">
	.st0{fill:#FFFFFF;}
</style>
<path class="st0" d="M100,12.5c-48.325,0-87.5,39.175-87.5,87.5s39.175,87.5,87.5,87.5s87.5-39.175,87.5-87.5S148.325,12.5,100,12.5
	z M119.63,42.633c3.225-5.584,10.372-7.502,15.956-4.277c5.584,3.225,7.502,10.372,4.269,15.956
	c-3.225,5.584-10.364,7.502-15.956,4.269c-5.592-3.233-7.502-10.364-4.277-15.948L119.63,42.633z M100,49.246
	c4.703,0,9.243,0.65,13.559,1.841c0.758,4.695,3.55,9.018,7.99,11.586c4.44,2.568,9.568,2.815,14.007,1.137
	c8.639,8.492,14.262,20.048,15.082,32.918l-16.645,0.247c-1.531-17.433-16.165-31.1-33.985-31.1c-5.136,0-10.008,1.145-14.371,3.171
	l-8.121-14.549c6.783-3.357,14.417-5.252,22.492-5.252H100z M40.499,111.679c-6.458,0-11.687-5.229-11.687-11.679
	c0-6.451,5.229-11.687,11.687-11.687c6.451,0,11.679,5.228,11.679,11.687C52.178,106.458,46.949,111.679,40.499,111.679z
	 M50.855,112.723c3.689-3.009,6.048-7.588,6.048-12.723s-2.359-9.714-6.048-12.723c3.163-12.228,10.766-22.67,20.984-29.499
	l8.539,14.309c-8.779,6.18-14.51,16.374-14.51,27.921s5.731,21.742,14.51,27.914l-8.539,14.309
	C61.614,135.401,54.011,124.959,50.855,112.723z M135.594,161.636c-5.592,3.225-12.731,1.315-15.956-4.277
	s-1.315-12.723,4.277-15.956c5.584-3.225,12.731-1.307,15.948,4.277c3.218,5.584,1.315,12.731-4.277,15.956H135.594z
	 M135.555,136.182c-4.44-1.678-9.568-1.423-14.007,1.137c-4.44,2.568-7.224,6.891-7.99,11.586
	c-4.316,1.199-8.864,1.849-13.559,1.849c-8.075,0-15.709-1.895-22.492-5.259l8.121-14.549c4.37,2.034,9.235,3.171,14.371,3.171
	c17.828,0,32.454-13.667,33.985-31.1l16.652,0.247C149.818,116.134,144.195,127.689,135.555,136.182z"/>
</svg>
