<?xml version="1.0" encoding="utf-8"?>
<!-- Generator: Adobe Illustrator 17.0.0, SVG Export Plug-In . SVG Version: 6.00 Build 0)  -->
<!DOCTYPE svg PUBLIC "-//W3C//DTD SVG 1.1//EN" "http://www.w3.org/Graphics/SVG/1.1/DTD/svg11.dtd">
<svg version="1.1" id="Layer_1" xmlns="http://www.w3.org/2000/svg" xmlns:xlink="http://www.w3.org/1999/xlink" x="0px" y="0px"
	 width="200px" height="200px" viewBox="0 0 200 200" style="enable-background:new 0 0 200 200;" xml:space="preserve">
<style type="text/css">
	.st0{fill:#FFFFFF;}
</style>
<path class="st0" d="M187.243,127.22c-0.608-5.084-3.225-9.029-7.176-12.12c-4.576-3.577-9.933-5.05-15.641-5.284
	c-4.654-0.19-9.207,0.502-13.599,2.098c-1.25,0.452-2.478,0.988-3.739,1.495c-0.167-0.307-0.346-0.597-0.491-0.904
	c-1.295-2.645-2.857-5.173-3.197-8.203c-0.246-2.154-0.547-4.308-0.033-6.434c0.491-2.048,1.138-4.062,1.741-6.088
	c0.312-1.043,0.095-1.624-0.898-2.093c-0.346-0.162-0.72-0.307-1.099-0.363c-2.444-0.352-4.849-0.151-7.215,0.536
	c-0.837,0.246-1.445,0.714-1.629,1.641c-0.106,0.53-0.324,1.038-0.469,1.562c-0.619,2.182-1.055,4.403-2.053,6.479
	c-2.506,5.212-5.357,10.223-8.287,15.2c-0.318,0.536-0.647,1.066-1.049,1.719c-1.027-2.148-2.12-4.074-2.455-6.339
	c-0.374-2.556-0.67-5.106-0.033-7.645c0.474-1.892,1.094-3.75,1.663-5.614c0.273-0.887,0.145-1.35-0.658-1.819
	c-0.407-0.234-0.865-0.446-1.322-0.513c-2.533-0.374-5.028-0.179-7.466,0.614c-0.759,0.246-1.155,0.737-1.389,1.518
	c-0.681,2.305-1.261,4.665-2.215,6.858c-3.873,8.872-7.851,17.7-11.83,26.523c-0.831,1.841-1.802,3.622-2.74,5.413
	c-0.24,0.458-0.58,0.854-0.876,1.283c-0.24-0.279-0.329-0.474-0.329-0.664c0.006-1.133-0.128-2.305,0.089-3.398
	c0.653-3.315,1.406-6.618,2.204-9.905c0.653-2.712,1.417-5.402,2.148-8.102c0.246-0.904,0.251-1.747-0.402-2.505
	c-1.088-1.272-3.365-1.551-4.715-0.569c-0.145,0.106-0.318,0.179-0.597,0.34c0.05-0.43,0.078-0.698,0.117-0.965
	c0.285-2.065,0.34-4.118-0.223-6.155c-0.709-2.533-2.511-3.99-5.139-3.912c-1.228,0.039-2.511,0.246-3.644,0.692
	c-4.771,1.869-8.437,5.178-11.557,9.163c-0.285,0.363-0.658,0.692-1.055,0.91c-4.034,2.238-8.086,4.447-12.131,6.668
	c-1.512,0.826-3.024,1.657-4.503,2.466c-1.205-1.155-2.305-2.349-3.555-3.365c-3.806-3.103-7.673-6.127-11.501-9.196
	c-3.393-2.718-6.685-5.552-9.202-9.151c-1.875-2.678-3.08-5.608-3.192-8.923c-0.145-4.219,1.049-8.075,3.197-11.668
	c2.751-4.592,6.495-8.275,10.619-11.618c4.358-3.532,9.073-6.529,13.962-9.263c6.836-3.828,13.872-7.215,21.411-9.453
	c7.734-2.293,15.574-3.605,23.666-2.69c3.181,0.357,6.267,1.088,9.107,2.645c2.171,1.189,3.951,2.745,4.782,5.184
	c0.815,2.399,0.792,4.827,0.223,7.26c-1.15,4.927-3.85,8.995-7.249,12.628c-5.569,5.954-12.366,10.005-20.022,12.684
	c-4.414,1.546-8.956,2.517-13.621,2.907c-3.806,0.318-7.533-0.017-11.138-1.345c-2.388-0.876-4.464-2.221-6.138-4.168
	c-0.301-0.352-0.681-0.725-1.239-0.402c-0.547,0.318-0.642,0.843-0.458,1.367c0.307,0.876,0.586,1.78,1.066,2.561
	c1.194,1.959,2.941,3.382,4.86,4.604c3.688,2.344,7.807,3.13,12.081,3.315c6.484,0.279,12.812-0.686,19.045-2.427
	c8.906-2.483,16.646-6.869,22.856-13.789c5.173-5.759,8.861-12.265,9.654-20.117c0.385-3.834-0.022-7.589-1.819-11.082
	c-1.947-3.789-5.039-6.4-8.739-8.337c-5.379-2.824-11.194-3.934-17.193-4.258c-2.003,0-4.007,0-6.01,0
	c-7.271,0.352-14.296,1.881-21.127,4.364c-5.167,1.881-10.24,4.001-15.161,6.456c-10.72,5.357-20.702,11.763-28.9,20.641
	c-4.085,4.425-7.544,9.28-9.531,15.027c-0.58,1.685-0.937,3.471-1.356,5.212c-0.033,0.145,0.128,0.285-0.229,0.43
	c0,0.82,0,1.635,0,2.455c0.357,0.631,0.396,1.256,0.558,1.886c1.055,4.09,3.225,7.606,5.915,10.809
	c3.834,4.565,8.471,8.236,13.281,11.696c4.168,2.997,8.398,5.926,12.583,8.9c0.72,0.508,1.384,1.099,2.165,1.724
	c-0.67,0.363-1.233,0.681-1.814,0.977c-5.524,2.801-10.837,5.943-15.736,9.749c-2.952,2.293-5.809,4.732-7.823,7.913
	c-3.242,5.123-4.392,10.58-1.975,16.406c0.709,1.702,1.786,3.175,3.303,4.258c0.491,0.352,1.043,0.703,1.618,0.837
	c1.473,0.346,2.98,0.575,4.475,0.848c1.412,0,2.818,0,4.23,0c4.682-0.419,8.939-2.02,12.784-4.676
	c6.015-4.152,10.067-9.715,11.813-16.863c1.267-5.19,1.317-10.39-0.173-15.558c-0.139-0.48-0.312-0.949-0.497-1.412
	c-0.184-0.463-0.396-0.915-0.647-1.495c3.192-1.836,6.395-3.677,9.592-5.519c0.05,0.039,0.095,0.084,0.145,0.123
	c-0.173,0.569-0.357,1.138-0.519,1.719c-1.138,4.163-1.897,8.398-1.624,12.717c0.29,4.604,1.574,8.912,4.269,12.762
	c2.176,3.114,7.371,3.225,9.687,0.106c0.82-1.11,1.618-2.266,2.215-3.504c1.562-3.231,3.013-6.518,4.503-9.782
	c0.067-0.14,0.123-0.279,0.262-0.597c-0.106,1.546-0.234,2.902-0.29,4.263c-0.089,2.12,0.033,4.23,0.759,6.25
	c0.619,1.73,1.674,3.019,3.655,3.242c1.35,0.156,2.433-0.463,3.426-1.25c1.557-1.228,2.818-2.74,3.755-4.464
	c2.651-4.871,5.374-9.71,7.779-14.704c2.6-5.402,4.871-10.959,7.288-16.45c0.134-0.301,0.251-0.608,0.402-0.977
	c0.569,2.243,0.971,4.436,1.702,6.518c0.848,2.411,1.903,4.765,3.052,7.053c0.541,1.083,0.48,1.786-0.273,2.69
	c-3.147,3.795-6.239,7.634-9.336,11.473c-0.686,0.848-1.367,1.708-1.936,2.634c-0.346,0.564-0.575,1.244-0.67,1.903
	c-0.184,1.256,0.586,2.461,1.931,2.751c1.222,0.262,2.528,0.363,3.778,0.268c4.319-0.318,8.242-1.836,11.713-4.403
	c4.492-3.331,5.937-7.868,4.849-13.253c-0.296-1.462-0.815-2.885-1.322-4.291c-0.229-0.636-0.24-1.083,0.173-1.674
	c3.594-5.128,6.663-10.574,9.514-16.138c0.112-0.218,0.229-0.441,0.424-0.675c0.926,4.816,2.316,9.453,4.81,13.66
	c-1.272,1.228-2.533,2.338-3.672,3.566c-2.511,2.695-4.687,5.63-5.82,9.202c-0.485,1.54-0.865,3.103-0.647,4.754
	c0.34,2.556,2.433,4.213,4.944,3.633c5.374-1.244,10.016-3.778,13.409-8.264c2.282-3.019,2.489-6.389,1.535-9.922
	c-0.262-0.96-0.575-1.903-0.91-3.008c1.328-0.413,2.623-0.904,3.956-1.211c6.947-1.585,13.817-1.306,20.507,1.2
	c3.906,1.462,7.065,3.917,8.934,7.773c2.288,4.715,1.021,9.185-3.421,12.165c-0.413,0.279-0.887,0.497-1.233,0.843
	c-0.212,0.212-0.335,0.642-0.285,0.932c0.028,0.173,0.485,0.385,0.742,0.385c1.462-0.011,2.645-0.776,3.783-1.562
	c2.851-1.97,4.732-4.626,5.178-8.114c0.011-0.1-0.134-0.195,0.223-0.29c0-0.776,0-1.546,0-2.321c-0.357-0.095-0.206-0.19-0.218-0.29
	L187.243,127.22z M51.338,136.651c-0.463,6.222-3.281,11.266-7.89,15.345c-2.595,2.299-5.563,3.934-9.029,4.509
	c-1.256,0.206-2.539,0.257-3.761-0.262c-1.735-0.742-2.126-2.282-2.16-3.928c-0.05-2.617,0.865-4.983,2.12-7.232
	c1.641-2.935,4.046-5.173,6.613-7.26c4.046-3.292,8.437-6.082,12.929-8.711c0.073-0.045,0.162-0.067,0.34-0.14
	c0.692,2.567,1.027,5.1,0.831,7.684L51.338,136.651z M86.437,109.615c-0.329,1.987-0.737,3.973-1.317,5.898
	c-2.009,6.663-4.581,13.125-7.366,19.492c-0.513,1.177-1.261,2.254-1.914,3.37c-0.1,0.173-0.251,0.324-0.396,0.469
	c-0.804,0.798-1.574,0.753-1.981-0.29c-0.474-1.211-0.764-2.505-1.016-3.789c-0.167-0.859-0.128-1.763-0.179-2.645
	c0.056-6.267,1.964-11.969,5.212-17.271c1.339-2.187,2.796-4.269,5.017-5.658c0.686-0.424,1.451-0.764,2.226-0.988
	c1.183-0.335,1.914,0.218,1.719,1.406L86.437,109.615z M110.382,140.122c2.868-3.348,5.731-6.691,8.605-10.05
	C119.344,133.805,113.005,141.254,110.382,140.122z M137.87,133.364c-0.608,0.346-1.272,0.603-1.897,0.921
	c-0.569,0.296-0.759,0-0.776-0.491c-0.011-0.335,0.039-0.681,0.128-1.004c1.161-4.101,3.298-7.595,6.484-10.441
	c0.045-0.045,0.117-0.061,0.223-0.117c1.512,4.23-0.234,8.884-4.168,11.132H137.87z"/>
</svg>
