<?xml version="1.0" encoding="utf-8"?>
<!-- Generator: Adobe Illustrator 17.0.0, SVG Export Plug-In . SVG Version: 6.00 Build 0)  -->
<!DOCTYPE svg PUBLIC "-//W3C//DTD SVG 1.1//EN" "http://www.w3.org/Graphics/SVG/1.1/DTD/svg11.dtd">
<svg version="1.1" id="Layer_1" xmlns="http://www.w3.org/2000/svg" xmlns:xlink="http://www.w3.org/1999/xlink" x="0px" y="0px"
	 width="200px" height="200px" viewBox="0 0 200 200" style="enable-background:new 0 0 200 200;" xml:space="preserve">
<style type="text/css">
	.st0{fill:#FFFFFF;}
</style>
<path class="st0" d="M64.524,20.629C54.391,22.84,49.028,34.583,50.167,51.97c0.348,5.036,0.293,4.544,1.337,10.979
	c0.437,2.593,0.73,4.776,0.669,4.838c-0.055,0.089-1.836,0.525-3.903,1.017c-13.777,3.173-23.916,7.949-30.003,14.125
	c-4.108,4.135-5.827,7.983-5.766,12.842c0.027,2.736,0.935,5.739,2.593,8.625c1.426,2.477,6.523,7.513,9.874,9.785
	c7.021,4.722,9.178,5.391,11.095,3.466c0.819-0.812,0.989-1.221,0.989-2.184c0-1.863-0.641-2.764-2.825-3.964
	c-9.614-5.329-14.65-10.863-14.65-16.165c0-1.924,0.669-3.671,2.272-5.766c4.224-5.623,14.418-10.658,28.079-13.893
	c3.61-0.846,4.312-0.901,4.312-0.293c0,0.785,2.914,10.106,4.776,15.203l1.863,5.124l-2.3,4.401
	c-1.256,2.416-3.057,6.087-3.992,8.188c-13.367,29.45-15.585,52.834-5.916,62.449c2.272,2.272,4.135,3.323,7.192,4.108
	c7.049,1.808,16.37-0.901,26.823-7.806c3.644-2.416,4.456-3.323,4.456-4.92c0-1.924-2.095-3.787-3.964-3.494
	c-0.525,0.089-2.566,1.221-4.517,2.504c-4.312,2.88-9.143,5.275-12.644,6.319c-3.582,1.051-7.458,1.105-9.669,0.143
	c-6.789-3.002-8.359-15.114-4.135-31.92c1.979-7.983,6.523-19.979,10.631-28.167l1.631-3.289l0.901,2.04
	c1.692,3.903,8.27,16.629,10.836,20.969c14.186,24.114,30.174,41.794,44.36,49.02c10.051,5.124,18.348,4.66,23.998-1.372
	c4.162-4.401,6.203-10.808,6.551-20.416c0.553-16.547-4.838-38.068-15.38-61.139c-1.399-3.091-2.798-5.882-3.057-6.175
	c-0.641-0.696-2.272-1.167-3.378-0.935c-1.105,0.232-2.45,1.576-2.648,2.709c-0.232,1.078,0.027,1.808,2.62,7.424
	c7.226,15.585,12.289,31.954,14.241,46.018c0.641,4.633,0.757,14.677,0.177,17.768c-0.58,3.118-1.72,6.353-2.941,8.215
	c-1.952,3.002-4.196,4.224-7.895,4.196c-10.979-0.027-28.283-15.114-43.664-38.014c-7.076-10.576-13.599-22.518-18.642-34.193
	l-1.808-4.162l2.532-4.278c3.262-5.534,6.701-10.774,10.542-16.165l3.057-4.278H89.6c32.391,0,64.543,7.342,80.974,18.437
	c3.76,2.532,7.369,6.237,8.625,8.795c0.873,1.808,0.989,2.3,0.989,4.367c-0.027,1.952-0.143,2.566-0.812,3.842
	c-2.006,3.903-7.11,7.779-14.186,10.863c-3.323,1.426-4.367,2.416-4.367,4.108c0,1.569,0.641,2.709,1.863,3.289
	c1.337,0.641,1.808,0.58,3.964-0.293c10.167-4.108,17.502-10.167,19.809-16.342c4.251-11.361-4.66-22.838-24.319-31.402
	c-17.182-7.513-42.435-12.207-68.713-12.76L90.542,64.3l3.289-3.787c3.787-4.401,12.146-12.76,15.728-15.755
	c8.502-7.165,16.11-11.709,22.661-13.572c3.234-0.935,7.226-0.901,9.294,0.027c2.798,1.256,4.749,4.08,5.827,8.447
	c0.669,2.648,0.669,10.747,0,14.65c-0.757,4.312-0.669,5.07,0.498,6.23c0.846,0.846,1.194,0.989,2.416,0.989
	c2.593,0,3.262-0.962,4.046-5.677c0.409-2.416,0.553-4.722,0.553-9.464c0-5.534-0.089-6.585-0.669-8.884
	c-1.836-7.253-6.319-12.262-12.323-13.688c-13.92-3.262-35.216,10.133-56.389,35.537c-1.747,2.068-3.378,4.108-3.644,4.456
	c-0.437,0.641-0.73,0.696-4.954,0.962c-2.45,0.143-6.933,0.553-9.99,0.901c-8.099,0.935-7.458,1.017-7.922-1.078
	c-1.221-5.855-1.631-9.962-1.658-16.308c-0.027-6.871,0.205-8.911,1.453-12.726c1.337-4.046,3.61-6.789,6.496-7.745
	c1.399-0.498,4.838-0.437,6.871,0.089c3.405,0.901,8.215,3.466,12.583,6.755c2.593,1.952,3.494,2.3,4.865,1.836
	c1.569-0.498,2.504-1.808,2.504-3.439c0-1.221-0.116-1.453-1.399-2.682c-1.808-1.747-7.049-5.24-10.222-6.817
	c-5.998-3.002-11.245-3.964-15.96-2.941L64.524,20.629z M75.448,72.242c-0.027,0.143-1.924,3.002-4.162,6.38
	c-2.238,3.378-4.456,6.789-4.92,7.574l-0.846,1.426l-0.696-1.89c-0.873-2.3-3.582-11.211-3.582-11.771
	c0-0.525,1.283-0.73,10.774-1.72c1.979-0.205,3.555-0.205,3.439,0L75.448,72.242z M97.618,90.243
	c-2.068,0.669-4.08,2.156-5.275,3.93c-3.582,5.275-1.836,12.146,3.787,14.909c1.747,0.873,2.184,0.962,4.572,0.962
	c2.388,0,2.825-0.089,4.572-0.962c7.601-3.726,7.431-14.793-0.293-18.348c-2.04-0.935-5.329-1.133-7.369-0.498L97.618,90.243z"/>
</svg>
