<?xml version="1.0" encoding="utf-8"?>
<!-- Generator: Adobe Illustrator 17.0.0, SVG Export Plug-In . SVG Version: 6.00 Build 0)  -->
<!DOCTYPE svg PUBLIC "-//W3C//DTD SVG 1.1//EN" "http://www.w3.org/Graphics/SVG/1.1/DTD/svg11.dtd">
<svg version="1.1" id="Layer_1" xmlns="http://www.w3.org/2000/svg" xmlns:xlink="http://www.w3.org/1999/xlink" x="0px" y="0px"
	 width="200px" height="200px" viewBox="0 0 200 200" style="enable-background:new 0 0 200 200;" xml:space="preserve">
<style type="text/css">
	.st0{fill:#FFFFFF;}
</style>
<path class="st0" d="M158.43,35.324c-0.48-0.472-0.968-0.944-1.463-1.409C157.455,34.38,157.935,34.852,158.43,35.324z
	 M16.425,82.36c0,0-0.248,0.302-0.619,0.805c-0.054,0.279-0.108,0.55-0.155,0.828c0.232-0.65,0.495-1.208,0.782-1.633H16.425z
	 M41.034,42.609c0.163-0.163,0.317-0.325,0.472-0.488c7.416-7.416,16.055-13.245,25.67-17.309c9.955-4.211,20.53-6.348,31.437-6.348
	c10.296,0,20.29,1.904,29.757,5.659c5.527,0.952,12.889,2.795,19.028,6.286C133.627,20.624,116.79,14.88,98.613,14.88
	c-23.564,0-44.876,9.669-60.18,25.252c0.712,0.867,1.571,1.703,2.593,2.477L41.034,42.609z M70.985,106.048
	c-0.588-0.488-1.092-1.014-1.517-1.556c-0.147,1.208-0.24,2.5-0.24,3.863c0,2.539,0.317,5.272,1.184,7.989
	c0.867,2.717,2.276,5.403,4.498,7.904c1.479,1.664,3.329,3.251,5.636,4.683l-0.132,0.209c4.335,0.077,11.395-0.008,14.972-1.2
	c5.38-1.796,13.996-8.616,13.996-8.616c2.152-2.152,4.668-1.076,6.82-1.076s2.872-3.228,0-6.464
	c-2.872-3.228-12.92-6.464-20.46-1.432c-7.54,5.032-18.308,1.076-24.764-4.304H70.985z M76.187,58.679
	c-0.48,1.788-0.898,4.056-0.898,6.526c0,2.493,0.418,5.171,1.587,7.811c0.937,2.113,1.827,3.669,2.632,4.916
	c0.565,0.875,1.099,1.602,1.595,2.268c1.014-0.929,2.191-1.866,3.158-2.508c2.152-1.432,10.412-5.388,11.488-6.464
	c1.076-1.076,3.228-6.82,1.432-8.616c-1.796-1.796-13.284-0.72-16.868-1.432C78.804,60.878,77.356,59.81,76.187,58.679z
	 M78.502,93.801c0.008,0.031,0.015,0.046,0.015,0.046c0.015-0.031,0.023-0.054,0.039-0.085L78.502,93.801z M184.766,77.692
	c0,2.918-2.632,7.006-3.143,7.772c0.108-0.271,0.271-1.122,0.271-3.824c0-3.948,1.076-13.996-3.948-25.128
	C172.922,45.38,165.382,40,165.382,40v2.516c-1.076-3.592-11.124-10.412-11.124-10.412v3.592c17.944,16.512,19.74,28,19.74,28
	c-3.228-10.412-12.564-18.308-20.46-25.84s-24.408-11.488-24.408-11.488c17.588,10.048,26.204,25.84,26.204,25.84
	c-8.972-8.616-16.156-7.896-16.156-7.896c5.388,3.948,7.896,8.252,12.92,16.156c5.024,7.904,4.668,26.56,4.668,26.56
	c-2.516-6.1-7.54-8.616-7.54-8.616s1.076,10.768,1.796,16.868c0.72,6.1-2.516,17.588-2.516,17.588c0-4.304-2.516-5.388-2.516-5.388
	s0.72,2.516-2.872,13.996c-3.592,11.488-10.412,15.436-11.488,15.072s0-2.152,0-2.152s-1.796-1.432-4.304,2.516
	c-2.121,3.329-5.775,5.125-6.859,5.612c1.169-0.666,1.479-3.096,1.479-3.096s-2.516,1.432-13.996,3.228
	c-11.488,1.796-16.868-3.228-16.868-3.228c1.076-1.076,6.1,0,6.1,0c0-1.076-5.744-2.872-11.488-3.592
	c-4.668-0.581-6.936-2.748-8.012-4.482c-2.152-1.448-3.956-3.042-5.458-4.722c-1.719-1.928-3.027-3.979-4.002-6.061
	c-1.959-4.165-2.586-8.438-2.586-12.216c0-3.561,0.557-6.696,1.107-8.957s1.115-3.646,1.138-3.708l0,0l0.077,0.031
	c0.673-2.075,1.997-3.739,3.561-4.42c-0.488-0.333-0.999-0.65-1.517-0.921c-2.346-1.254-5.001-1.773-7.61-1.339
	c-2.617,0.41-5.125,1.711-7.346,3.414c-2.137,1.633-3.84,3.956-4.954,6.51c-1.122,2.57-1.688,5.411-1.688,8.26
	c0,2.849,0.557,5.721,1.595,8.422c1.03,2.702,2.531,5.241,4.343,7.532c1.811,2.291,3.933,4.366,6.232,6.208
	c-2.4-1.711-4.645-3.662-6.611-5.891c-1.966-2.229-3.646-4.73-4.869-7.47c-1.231-2.74-1.989-5.713-2.16-8.755
	c-0.17-3.042,0.255-6.139,1.339-9.034c1.084-2.895,2.802-5.605,5.241-7.703c1.184-0.991,2.469-1.889,3.863-2.632
	c1.393-0.743,2.911-1.324,4.505-1.649c1.595-0.325,3.259-0.387,4.892-0.163c1.633,0.225,3.205,0.72,4.668,1.417
	c1.463,0.697,2.818,1.579,4.056,2.578c0.619,0.503,1.208,1.037,1.773,1.602c0.279,0.279,0.557,0.573,0.828,0.875
	c0.224,0.255,0.434,0.488,0.658,0.774c1.277-3.313,0.379-8.856,0.17-10.017c-0.673-0.96-1.633-2.168-2.717-3.894
	c-0.813-1.301-1.695-2.903-2.601-4.931c-1.409-3.182-1.897-6.379-1.897-9.266c0-3.375,0.658-6.34,1.308-8.477
	c0.201-0.658,0.403-1.239,0.588-1.734c2.028-8.825,11.743-17.503,11.743-17.503c-13.64-1.796-22.968,10.768-22.968,10.768
	c-0.039-0.023-0.077-0.046-0.116-0.07c-0.968,1.068-4.25,4.908-4.552,7.966c0,0,0.116-5.496,1.486-9.336
	c-5.202-1.657-11.333-0.79-14.468-0.139l0.023,0.116c-3.22,0.581-6.162,1.819-8.771,3.375c-2.609,1.556-4.885,3.437-6.758,5.256
	c-3.739,3.631-5.852,7.021-5.868,7.06l0,0l0,0l-0.101-0.062c-6.603,9.576-10.76,29.99-10.76,29.99
	c0.72-3.228,3.948-7.176,3.948-7.176c-3.592,5.388-2.872,30.152-2.872,30.152c0-3.948,2.152-8.616,2.152-8.616
	c0.72,8.252,4.304,34.82,27.636,54.916s43.072,21.9,43.072,21.9c-4.668-1.44-5.744-3.592-5.744-3.592
	c15.072,6.1,24.408,5.024,24.408,5.024c-2.516-1.432-2.872-2.516-2.872-2.516c16.156,0.72,37.692-5.024,42.716-8.616
	c5.024-3.592,9.336-10.768,9.336-10.768c12.92-6.1,21.892-18.664,24.408-25.128c2.516-6.464,0-13.284,0-13.284s0-0.356,6.1-13.996
	c6.1-13.64,0-33.024,0-33.024L184.766,77.692z M34.059,47.13c1.517-0.906,3.151-1.726,4.892-2.408
	c-6.913-5.759-6.371-13.338-6.371-13.338c-6.913,6.673-8.601,17.944-8.957,24.756c0.101-0.116,0.194-0.232,0.294-0.348
	c2.338-2.694,5.752-6.038,10.141-8.67L34.059,47.13z"/>
</svg>
