<?xml version="1.0" encoding="utf-8"?>
<!-- Generator: Adobe Illustrator 17.0.0, SVG Export Plug-In . SVG Version: 6.00 Build 0)  -->
<!DOCTYPE svg PUBLIC "-//W3C//DTD SVG 1.1//EN" "http://www.w3.org/Graphics/SVG/1.1/DTD/svg11.dtd">
<svg version="1.1" id="Layer_1" xmlns="http://www.w3.org/2000/svg" xmlns:xlink="http://www.w3.org/1999/xlink" x="0px" y="0px"
	 width="200px" height="200px" viewBox="0 0 200 200" style="enable-background:new 0 0 200 200;" xml:space="preserve">
<style type="text/css">
	.st0{fill:#FFFFFF;}
</style>
<path class="st0" d="M97.411,56.407c0,0.565-0.565,0.565-0.565,0.565h-0.565c-0.565,0-0.565-0.565-1.13-1.13
	c0,0-0.565-0.565-0.565-1.13c0-0.565,0-0.565,0.565-0.565l1.13,0.565C96.846,55.277,97.411,55.842,97.411,56.407z M87.241,50.757
	c0-2.825-1.13-4.52-2.825-4.52c0,0,0,0.565-0.565,0.565v1.13h1.695c0,1.13,0.565,1.695,0.565,2.825H87.241z M107.015,47.933
	c1.13,0,1.695,1.13,2.26,2.825h1.13c-0.565-0.565-0.565-1.13-0.565-1.695c0-0.565,0-1.13-0.565-1.695
	c-0.565-0.565-1.13-1.13-1.695-1.13c0,0-0.565,0.565-1.13,0.565C106.45,47.368,107.015,47.368,107.015,47.933z M90.066,56.972
	c-0.565,0-0.565,0-0.565-0.565s0-1.13,0.565-1.695c1.13,0,1.695-0.565,1.695-0.565c0.565,0,0.565,0.565,0.565,0.565
	c0,0.565-0.565,1.13-1.695,2.26H90.066z M83.852,56.407c-2.26-1.13-2.825-2.825-2.825-5.65c0-1.695,0-2.825,1.13-3.955
	c0.565-1.13,1.695-1.695,2.825-1.695s1.695,0.565,2.825,1.695c0.565,1.695,1.13,3.39,1.13,5.085v1.13h0.565v-0.565
	c0.565,0,0.565-1.13,0.565-3.39c0-1.695,0-3.39-1.13-5.085c-1.13-1.695-2.26-2.825-4.52-2.825c-1.695,0-3.39,1.13-3.955,2.825
	c-1.13,2.26-1.357,3.955-1.357,6.779c0,2.26,0.792,4.52,3.052,6.779C82.722,56.972,83.287,56.972,83.852,56.407z M154.46,136.055
	c0.565,0,0.565-0.227,0.565-0.737c0-1.241-0.565-2.708-2.26-4.348c-1.695-1.695-4.52-2.769-7.909-3.218
	c-0.565-0.055-1.13-0.055-1.13-0.055c-0.565-0.111-0.565-0.111-1.13-0.111c-0.565-0.055-1.695-0.172-2.26-0.282
	c1.695-5.256,2.26-9.887,2.26-13.952c0-5.65-1.13-9.604-3.39-12.994c-2.26-3.39-4.52-5.085-7.344-5.65
	c-0.565,0.565-0.565,0.565-0.565,1.13c2.825,1.13,5.65,3.39,7.344,6.779c1.695,3.955,2.26,7.344,2.26,11.299
	c0,3.163-0.565,7.854-2.825,13.841c-2.26,0.903-4.52,2.991-6.215,6.27c0,0.51,0,0.792,0.565,0.792c0,0,0.565-0.51,1.13-1.468
	c1.13-0.958,1.695-1.922,2.825-2.88c1.695-0.958,2.825-1.468,4.52-1.468c2.825,0,5.65,0.393,7.344,1.185
	c2.26,0.737,3.39,1.523,3.955,2.432c0.565,0.847,1.13,1.639,1.695,2.371c0,0.731,0.565,1.075,0.565,1.075L154.46,136.055z
	 M102.495,54.147c-0.565-0.565-0.565-1.695-0.565-2.825c0-2.26,0-3.39,1.13-5.085c1.13-1.13,2.26-1.695,3.39-1.695
	c1.695,0,2.825,1.13,3.955,2.26c0.565,1.695,1.13,2.825,1.13,4.52c0,2.825-1.13,4.52-3.39,5.085c0,0,0.565,0.565,1.13,0.565
	c1.13,0,1.695,0.565,2.825,1.13c0.565-3.39,1.13-5.65,1.13-8.474c0-3.39-0.565-5.65-1.695-7.344c-1.695-1.695-3.39-2.26-5.65-2.26
	c-1.695,0-3.39,0.565-5.085,1.695c-1.13,1.695-1.695,2.825-1.695,4.52c0,2.825,0.565,5.085,1.695,7.344
	C101.365,53.582,101.93,54.147,102.495,54.147z M109.275,63.186c-7.344,5.085-12.994,7.344-17.514,7.344
	c-3.955,0-7.909-1.695-11.299-4.52c0.565,1.13,1.13,2.26,1.695,2.825l3.39,3.39c2.26,2.26,5.085,3.39,7.909,3.39
	c3.955,0,8.474-2.26,14.124-6.215l5.085-3.39c1.13-1.13,2.26-2.26,2.26-3.955c0-0.565,0-1.13-0.565-1.13
	c-0.565-1.13-3.39-2.825-9.039-4.52c-5.085-2.26-9.039-3.39-11.299-3.39c-1.695,0-4.52,1.13-8.474,3.39
	c-3.39,2.26-5.65,4.52-5.65,6.779c0,0,0.565,0.565,1.13,1.695c3.39,2.825,6.779,4.52,10.169,4.52c4.52,0,10.169-2.26,17.514-7.909
	v1.13C109.275,62.621,109.275,63.186,109.275,63.186z M122.263,177.291c2.26,4.248,6.215,6.381,10.734,6.381
	c1.13,0,2.26-0.172,3.39-0.51c1.13-0.227,2.26-0.62,2.825-1.075c0.565-0.393,1.13-0.792,1.695-1.241
	c1.13-0.393,1.13-0.676,1.695-0.958l9.604-8.303c2.26-1.8,4.52-3.379,7.344-4.747c2.26-1.357,4.52-2.26,5.65-2.769
	c1.695-0.454,2.825-1.13,3.955-2.033c0.565-0.847,1.13-1.922,1.13-3.279c0-1.639-1.13-2.88-2.26-3.783
	c-1.13-0.903-2.26-1.523-3.39-1.922c-1.13-0.399-2.26-1.302-3.955-2.825c-1.13-1.468-2.26-3.501-2.825-6.159l-0.565-3.273
	c-0.565-1.523-0.565-2.653-1.13-3.279c0-0.172,0-0.227-0.565-0.227c-0.565,0-1.695,0.51-2.26,1.468
	c-1.13,0.958-2.26,2.033-3.39,3.163c-0.565,1.13-2.26,2.144-3.39,3.107c-1.695,0.958-3.39,1.468-4.52,1.468
	c-4.52,0-6.779-1.241-8.474-3.672c-1.13-1.806-1.695-3.899-2.26-6.27c-1.13-0.958-1.695-1.468-2.825-1.468
	c-2.825,0-3.955,2.936-3.955,8.868v17.569c0,0.51-0.565,1.639-0.565,3.39c-0.565,1.75-0.565,3.739-0.565,5.987l-1.13,6.27v0.094
	V177.291z M40.356,174.284c5.251,0.77,11.299,2.409,18.134,4.918c6.835,2.487,11.017,3.783,12.54,3.783
	c3.955,0,7.234-1.75,9.942-5.134c0.565-1.097,0.565-2.382,0.565-3.866c0-5.339-3.218-12.091-9.66-20.278l-3.844-5.14
	c-0.792-1.075-1.75-2.714-2.991-4.913c-1.185-2.204-2.26-3.899-3.107-5.085c-0.737-1.302-1.922-2.598-3.445-3.899
	c-1.468-1.302-3.163-2.144-5.029-2.598c-2.371,0.454-4.01,1.241-4.802,2.315c-0.792,1.075-1.241,2.26-1.357,3.501
	c-0.172,1.185-0.51,1.977-1.075,2.371c-0.565,0.338-1.523,0.62-2.825,0.903c-0.282,0-0.792,0-1.523,0.055h-1.523
	c-2.996,0-5.029,0.338-6.098,0.903c-1.412,1.639-2.149,3.501-2.149,5.478c0,0.903,0.227,2.432,0.676,4.575
	c0.454,2.088,0.676,3.783,0.676,4.968c0,2.315-0.676,4.63-2.088,6.946c-1.412,2.432-2.149,4.237-2.149,5.522
	c0.565,2.193,4.293,3.733,11.127,4.636L40.356,174.284z M59.165,122.922c0-3.899,1.019-8.192,3.107-13.276
	c2.033-5.085,4.065-8.474,6.043-10.734c-0.111-0.565-0.393-0.565-0.847-0.565l-0.565-0.565c-1.639,1.695-3.617,5.65-5.987,11.299
	c-2.371,5.085-3.617,9.77-3.617,13.221c0,2.542,0.62,4.747,1.75,6.663c1.241,1.867,4.237,4.575,8.984,8.02l5.987,3.899
	c6.381,5.539,9.77,9.377,9.77,11.637c0,1.185-0.565,2.371-2.26,3.672c-1.13,1.357-2.653,2.033-3.955,2.033
	c-0.111,0-0.172,0.111-0.172,0.393c0,0.055,0.565,1.185,1.75,3.39c2.371,3.218,7.455,4.802,14.235,4.802
	c12.429,0,22.028-5.085,29.372-15.254c0-2.825,0-4.575-0.565-5.312v-2.088c0-3.672,0.565-6.442,1.695-8.247
	c1.13-1.806,2.26-2.653,3.955-2.653c1.13,0,2.26,0.393,3.39,1.241c0.565-4.348,0.565-8.136,0.565-11.526c0-5.14,0-9.377-1.13-13.332
	c-0.565-3.39-1.695-6.215-2.825-8.474c-1.13-1.695-2.26-3.39-3.39-5.085c-1.13-1.695-1.695-3.39-2.825-5.085
	c-0.565-2.26-1.13-3.955-1.13-6.779c-1.695-2.825-2.825-5.65-4.52-8.474c-1.13-2.825-2.26-5.65-3.39-7.909l-5.085,3.955
	c-5.65,3.955-10.169,5.65-14.124,5.65c-3.39,0-6.215-0.565-7.909-2.825l-3.39-2.825c0,1.695-0.565,3.955-1.695,6.215l-3.561,6.779
	c-1.584,3.955-2.426,6.215-2.598,7.909c-0.227,1.13-0.393,2.26-0.51,2.26l-4.237,8.474c-4.575,8.474-6.89,16.323-6.89,22.82
	c0,1.302,0.111,2.653,0.338,4.01c-2.542-1.75-3.783-4.182-3.783-7.344L59.165,122.922z M99.615,176.361
	c-7.344,0-12.994,0.997-16.949,2.963v-0.172c-2.825,3.39-5.987,5.14-10.396,5.14c-2.769,0-7.117-1.075-12.994-3.218
	c-5.932-2.033-11.183-3.595-15.758-4.619c-0.454-0.127-1.468-0.321-3.107-0.582c-1.584-0.255-3.052-0.515-4.348-0.775
	c-1.185-0.255-2.542-0.637-4.01-1.158c-1.412-0.449-2.542-1.03-3.39-1.734c-0.781-0.714-1.163-1.512-1.163-2.415
	c0-0.903,0.194-1.867,0.576-2.897c0.36-0.62,0.759-1.241,1.152-1.806c0.393-0.62,0.737-1.185,0.958-1.75
	c0.338-0.51,0.565-1.019,0.792-1.584c0.227-0.51,0.454-1.019,0.565-1.639c0.111-0.565,0.227-1.13,0.227-1.695
	c0-0.565-0.227-2.26-0.676-5.251c-0.454-2.936-0.676-4.802-0.676-5.594c0-2.487,0.565-4.464,1.806-5.877
	c1.241-1.412,2.432-2.149,3.672-2.149h6.497c0.51,0,1.302-0.282,2.487-0.958c0.393-0.903,0.737-1.639,0.958-2.315
	c0.282-0.676,0.393-1.185,0.51-1.412c0.111-0.338,0.227-0.676,0.338-0.958c0.227-0.393,0.51-0.847,0.903-1.302
	c-0.454-0.565-0.676-1.302-0.676-2.204c0-0.62,0-1.185,0.111-1.523c0-2.033,0.958-4.913,2.991-8.701l1.977-3.561
	c1.639-3.052,2.88-5.312,3.783-7.572c0.958-2.26,1.977-5.65,3.107-10.169c0.903-3.955,3.052-7.909,6.442-11.864l4.237-5.085
	c2.936-3.39,4.858-6.215,5.932-8.474c1.075-2.26,1.639-5.085,1.639-7.344c0-1.13-0.282-4.52-0.903-10.169
	c-0.565-5.65-0.847-11.299-0.847-16.384c0-3.955,0.338-6.779,1.075-9.604s2.033-5.65,3.955-7.909c1.695-2.26,3.955-4.52,7.344-5.65
	s7.344-1.695,11.864-1.695c1.695,0,3.39,0,5.085,0.565c1.695,0,3.955,0.565,6.779,1.695c2.26,1.13,4.52,2.26,6.215,3.955
	c2.26,1.695,3.955,4.52,5.65,7.344c1.13,3.39,2.26,6.779,2.825,11.299c0.565,2.825,0.565,5.65,1.13,9.604
	c0,3.39,0.565,5.65,0.565,7.344c0.565,1.695,0.565,3.955,1.13,6.779c0.565,2.26,1.13,4.52,2.26,6.215
	c1.13,2.26,2.26,4.52,3.955,6.779c1.695,2.825,3.955,5.65,6.215,9.039c5.085,5.65,9.039,11.864,11.299,18.073
	c2.825,5.65,4.52,12.994,4.52,20.842c0,3.899-0.565,7.682-1.695,11.355c1.13,0,1.695,0.454,2.26,1.241s1.13,2.487,1.695,5.14
	l0.565,4.182c0.565,1.241,1.13,2.432,2.825,3.445c1.13,1.019,2.26,1.867,3.955,2.542c1.13,0.565,2.825,1.357,3.955,2.371
	c1.13,1.13,1.695,2.315,1.695,3.556c0,1.922-0.565,3.334-1.695,4.348c-1.13,1.13-2.26,1.922-3.955,2.432
	c-1.13,0.565-3.39,1.695-6.779,3.29c-2.825,1.673-5.65,3.7-8.474,6.098l-5.65,4.808c-2.26,2.204-4.52,3.783-6.215,4.747
	c-1.695,1.019-3.955,1.523-6.215,1.523l-3.955-0.454c-4.52-1.185-7.344-3.445-9.039-6.89c-9.039-1.097-16.384-1.639-20.903-1.639
	L99.615,176.361z"/>
</svg>
