<?xml version="1.0" encoding="utf-8"?>
<!-- Generator: Adobe Illustrator 17.0.0, SVG Export Plug-In . SVG Version: 6.00 Build 0)  -->
<!DOCTYPE svg PUBLIC "-//W3C//DTD SVG 1.1//EN" "http://www.w3.org/Graphics/SVG/1.1/DTD/svg11.dtd">
<svg version="1.1" id="Layer_1" xmlns="http://www.w3.org/2000/svg" xmlns:xlink="http://www.w3.org/1999/xlink" x="0px" y="0px"
	 width="200px" height="200px" viewBox="0 0 200 200" style="enable-background:new 0 0 200 200;" xml:space="preserve">
<style type="text/css">
	.st0{fill:#FFFFFF;}
</style>
<path class="st0" d="M100.004,14.65c-48.326,0-87.504,39.177-87.504,87.504c0,38.663,25.068,71.46,59.846,83.027
	c4.376,0.803,5.975-1.903,5.975-4.212c0-2.083-0.078-8.985-0.125-16.286c-24.335,5.288-29.475-10.319-29.475-10.319
	c-3.986-10.108-9.718-12.799-9.718-12.799c-7.956-5.429,0.601-5.319,0.601-5.319c8.782,0.608,13.415,9.016,13.415,9.016
	c7.807,13.376,20.49,9.508,25.466,7.261c0.796-5.639,3.057-9.508,5.553-11.684c-19.421-2.207-39.856-9.718-39.856-43.249
	c0-9.562,3.416-17.354,9.001-23.485c-0.889-2.223-3.908-11.122,0.866-23.165c0,0,7.339-2.348,24.062,8.97
	c6.973-1.95,14.46-2.909,21.894-2.94c7.433,0.031,14.921,1.006,21.909,2.956c16.691-11.333,24.046-8.97,24.046-8.97
	c4.781,12.05,1.771,20.942,0.874,23.157c5.608,6.123,8.993,13.922,8.993,23.485c0,33.616-20.466,41.018-39.957,43.186
	c3.151,2.714,5.936,8.034,5.936,16.192c0,11.699-0.117,21.129-0.117,24.015c0,2.332,1.591,5.054,6.021,4.196
	c34.747-11.59,59.792-44.38,59.792-83.027c0-48.319-39.177-87.504-87.504-87.504L100.004,14.65z"/>
</svg>
